<svg t="1728092752966" class="icon" viewBox="0 0 1078 1024" version="1.1" xmlns="http://www.w3.org/2000/svg" p-id="12205" width="200" height="200"><path d="M1024.808421 991.285895l-110.106947 25.6c-56.805053 13.150316-59.607579 11.856842-73.404632-41.606737l-11.210105-40.528842 228.621474-53.140211 7.383578 26.73179c17.408 67.314526 23.983158 67.799579-41.283368 82.997894z m-340.075789-580.985263c-13.743158-53.463579-11.856842-55.942737 44.894315-69.093053l110.106948-25.6c56.751158-13.204211 59.607579-11.856842 69.847579 27.809684l133.874526 483.166316-228.621474 53.14021-130.101894-469.423157zM529.515789 1024h-68.446315c-58.475789 0-75.883789-1.994105-75.88379-57.020632V129.562947h220.16v837.416421c0 55.026526-8.623158 57.020632-75.883789 57.020632zM385.131789 56.966737C385.185684 1.940211 402.593684 0 461.015579 0h68.446316c58.421895 0 75.883789 1.940211 75.883789 56.966737v44.193684H385.185684v-44.193684zM234.172632 1024H60.901053C2.479158 1024 0 1022.005895 0 966.979368v-47.912421h295.073684v47.912421c0 55.026526-2.479158 57.020632-60.901052 57.020632zM0 840.757895h295.073684v49.852631H0V840.757895z m0-441.721263h295.073684v413.210947H0V399.036632z m0-128.700632c0-55.026526 2.479158-57.020632 60.901053-57.020632h173.271579c58.421895 0 60.901053 1.940211 60.901052 57.020632v71.787789H0V270.336z" p-id="12206" fill="#1296db"></path></svg>
